<?xml version="1.0" encoding="UTF-8" standalone="no"?>
<!DOCTYPE svg PUBLIC "-//W3C//DTD SVG 1.1//EN" "http://www.w3.org/Graphics/SVG/1.1/DTD/svg11.dtd">
<svg version="1.1" xmlns="http://www.w3.org/2000/svg" xmlns:xlink="http://www.w3.org/1999/xlink" preserveAspectRatio="xMidYMid meet" viewBox="0 0 640 640" width="640" height="640"><defs><path d="M570.49 55.33C569.5 56.4 567.25 58.48 565.47 59.96C563.69 61.44 561.62 63.24 560.85 63.96C554.22 70.27 543.48 80.21 537.78 85.32C533.98 88.73 525.67 96.25 519.33 102.03C512.98 107.82 504.68 115.32 500.87 118.71C497.07 122.09 493.74 125.15 493.49 125.5C493.24 125.85 487.63 131 481.03 136.95C474.44 142.9 468.83 148.06 468.58 148.41C468.32 148.77 466.66 150.23 464.88 151.68C463.11 153.12 461.45 154.6 461.19 154.96C460.94 155.31 459.28 156.8 457.5 158.25C455.73 159.7 453.72 161.53 453.04 162.31C452.36 163.09 450.28 165.07 448.42 166.71C446.56 168.34 444.84 169.94 444.58 170.26C444.33 170.57 439.14 175.24 433.05 180.64C426.96 186.03 421.77 190.71 421.51 191.04C421.26 191.37 419.6 192.83 417.82 194.29C416.05 195.74 414.04 197.57 413.36 198.35C412.68 199.12 410.6 201.1 408.74 202.74C406.88 204.38 405.16 205.98 404.9 206.28C404.46 206.82 401.99 209.05 377.22 231.3C370.88 237 365.48 241.93 365.22 242.27C364.97 242.6 362.27 245.08 359.22 247.78C356.18 250.48 353.48 252.96 353.23 253.29C352.97 253.62 351.31 255.07 349.54 256.52C347.76 257.96 346.1 259.43 345.84 259.79C345.59 260.14 341.85 263.61 337.54 267.49C333.23 271.36 329.49 274.81 329.23 275.14C328.98 275.47 325.45 278.65 321.39 282.21C317.33 285.76 313.8 288.96 313.55 289.3C313.29 289.65 311.63 291.13 309.86 292.59C308.08 294.06 305.8 296.08 304.78 297.1C301.74 300.13 280.34 319.75 269.24 329.69C263.54 334.79 258.4 339.48 257.83 340.1C257.26 340.72 255.34 342.42 253.57 343.88C251.79 345.35 249.88 347.05 249.33 347.67C248.77 348.29 246.96 350.03 245.29 351.53C243.62 353.03 237.38 358.68 231.42 364.09C225.46 369.49 219.22 375.14 217.55 376.65C215.89 378.15 213.2 380.6 211.58 382.11C209.96 383.61 207.26 386.06 205.58 387.57C203.89 389.07 200.16 392.51 197.27 395.21C192.19 399.97 190.51 401.5 183.2 407.98C172.53 417.44 161.71 427.52 161.44 428.24C161.27 428.69 160.75 429.06 160.28 429.06C159.05 429.06 153.9 435.08 153.9 436.52C153.9 437.19 154.76 439.55 155.82 441.77C156.87 443.99 157.53 446.7 157.29 447.81C157.04 448.91 157.17 449.58 157.58 449.28C158.35 448.72 160.06 450.69 160.41 452.54C160.76 454.4 168.62 473 169.7 474.54C170.26 475.34 170.49 476.7 170.21 477.56C169.93 478.42 170.23 479.36 170.88 479.65C171.84 480.09 179.17 495.99 179.28 497.87C179.29 498.17 179.71 499.15 180.2 500.05C182.49 504.24 185.22 512.39 184.67 513.43C184.34 514.08 184.51 514.27 185.06 513.86C186.25 512.99 189.2 519.47 188.35 521.1C188.01 521.75 188.21 521.9 188.83 521.45C189.5 520.96 189.89 521.5 189.89 522.92C189.89 524.15 190.36 525.17 190.93 525.17C191.6 525.17 191.77 526.41 191.39 528.72C191 531.14 191.09 531.76 191.69 530.66C192.17 529.78 192.69 529.28 192.84 529.57C194.32 532.28 195.43 535.24 195.43 536.49C195.43 537.32 196.06 538.63 196.84 539.39C197.61 540.14 198.05 540.99 197.82 541.26C197.59 541.53 198.25 543.55 199.28 545.75C201.17 549.78 201.98 551.63 207.43 564.48C209.09 568.39 212.25 575.76 214.45 580.86C216.66 585.97 218.47 590.98 218.48 591.99C218.5 593.95 220.12 595.69 220.98 594.67C221.27 594.34 221.17 593.18 220.77 592.1C220.37 591.03 220.06 589.53 220.08 588.78C220.1 588.03 220.16 566.97 220.23 541.98C220.32 506.1 220.59 496.66 221.5 497.1C225.42 499 225.79 498.72 222.32 496.48C222.06 496.31 220.72 495.44 218.3 493.88C222.65 488.65 225.07 485.74 225.55 485.16C229.54 480.36 237.64 470.33 243.55 462.86C249.45 455.38 258.17 444.54 262.92 438.75C267.67 432.97 278.2 419.98 286.32 409.9C294.44 399.81 303.37 388.77 306.16 385.37C308.96 381.96 317.47 371.4 325.08 361.89C332.69 352.37 342.04 340.83 345.84 336.23C349.65 331.64 358.58 320.58 365.68 311.66C372.79 302.74 381.72 291.68 385.52 287.08C389.33 282.48 398.67 270.93 406.29 261.41C413.9 251.89 422.21 241.57 424.74 238.48C431.95 229.69 446.84 211.3 457.89 197.54C463.42 190.64 472.56 179.34 478.2 172.43C483.83 165.52 496.94 149.3 507.33 136.39C517.72 123.48 531.62 106.28 538.23 98.17C551.32 82.11 568.31 60.96 571.86 56.32C574.35 53.06 573.29 52.3 570.49 55.33M260.02 518.99C260.02 519.67 273.2 527.41 273.58 526.96C273.83 526.66 270.69 524.69 260.72 518.89C260.34 518.67 260.02 518.71 260.02 518.99" id="cFAUHYMJj"></path><path d="M585.77 35.99C585.77 36.55 584.94 37.01 583.92 37.01C582.91 37.01 582.08 37.5 582.08 38.1C582.08 38.7 581.25 39.2 580.23 39.2C579.22 39.2 578.39 39.59 578.39 40.08C578.39 40.57 576.93 41.65 575.16 42.47C573.38 43.3 571.93 44.37 571.93 44.86C571.93 45.35 571.1 45.75 570.08 45.75C569.07 45.75 568.24 46.24 568.24 46.84C568.24 47.44 567.41 47.93 566.39 47.93C565.38 47.93 564.55 48.42 564.55 49.02C564.55 49.63 563.72 50.12 562.7 50.12C561.69 50.12 560.85 50.61 560.85 51.21C560.85 51.81 560.02 52.3 559.01 52.3C557.99 52.3 557.16 52.79 557.16 53.39C557.16 53.99 556.33 54.48 555.32 54.48C554.3 54.48 553.47 54.98 553.47 55.58C553.47 56.18 552.64 56.67 551.63 56.67C550.61 56.67 549.78 57.16 549.78 57.76C549.78 58.36 548.95 58.85 547.94 58.85C546.92 58.85 546.09 59.34 546.09 59.95C546.09 60.55 545.26 61.04 544.24 61.04C543.23 61.04 542.4 61.53 542.4 62.13C542.4 62.73 541.57 63.22 540.55 63.22C539.54 63.22 538.71 63.71 538.71 64.31C538.71 64.91 537.96 65.41 537.04 65.41C536.12 65.41 534.56 66.13 533.58 67.01C532.59 67.89 531.06 68.63 530.17 68.65C529.28 68.67 528.56 69.17 528.56 69.77C528.56 70.37 527.73 70.87 526.71 70.87C525.7 70.87 524.87 71.36 524.87 71.96C524.87 72.56 524.04 73.05 523.02 73.05C522.01 73.05 521.17 73.54 521.17 74.14C521.17 74.74 520.34 75.23 519.33 75.23C518.31 75.23 517.48 75.73 517.48 76.33C517.48 76.93 516.65 77.42 515.64 77.42C514.62 77.42 513.79 77.91 513.79 78.51C513.79 79.11 512.96 79.6 511.95 79.6C510.93 79.6 510.1 80.09 510.1 80.69C510.1 81.3 509.27 81.79 508.26 81.79C507.24 81.79 506.41 82.28 506.41 82.88C506.41 83.48 505.58 83.97 504.56 83.97C503.55 83.97 502.72 84.46 502.72 85.06C502.72 85.66 501.89 86.15 500.87 86.15C499.86 86.15 499.03 86.55 499.03 87.04C499.03 87.53 497.57 88.61 495.8 89.43C494.02 90.26 492.57 91.33 492.57 91.82C492.57 92.31 491.74 92.71 490.72 92.71C489.71 92.71 488.88 93.2 488.88 93.8C488.88 94.4 488.05 94.89 487.03 94.89C486.02 94.89 485.19 95.38 485.19 95.98C485.19 96.58 484.36 97.08 483.34 97.08C482.33 97.08 481.49 97.57 481.49 98.17C481.49 98.77 480.66 99.26 479.65 99.26C478.63 99.26 477.8 99.75 477.8 100.35C477.8 100.95 476.97 101.44 475.96 101.44C474.94 101.44 474.11 101.94 474.11 102.54C474.11 103.14 473.28 103.63 472.27 103.63C471.25 103.63 470.42 104.12 470.42 104.72C470.42 105.32 469.59 105.81 468.58 105.81C467.56 105.81 466.73 106.3 466.73 106.9C466.73 107.5 465.9 108 464.88 108C463.87 108 463.04 108.49 463.04 109.09C463.04 109.69 462.31 110.2 461.42 110.22C460.54 110.24 459 110.97 458.02 111.85C457.03 112.74 455.47 113.46 454.56 113.46C453.64 113.46 452.89 113.95 452.89 114.55C452.89 115.15 452.06 115.64 451.04 115.64C450.03 115.64 449.2 116.13 449.2 116.73C449.2 117.33 448.37 117.83 447.35 117.83C446.34 117.83 445.51 118.32 445.51 118.92C445.51 119.52 444.68 120.01 443.66 120.01C442.65 120.01 441.81 120.5 441.81 121.1C441.81 121.7 440.98 122.19 439.97 122.19C438.95 122.19 438.12 122.68 438.12 123.29C438.12 123.89 437.29 124.38 436.28 124.38C435.26 124.38 434.43 124.87 434.43 125.47C434.43 126.07 433.6 126.56 432.59 126.56C431.57 126.56 430.74 127.05 430.74 127.65C430.74 128.25 429.91 128.75 428.9 128.75C427.88 128.75 427.05 129.24 427.05 129.84C427.05 130.44 426.22 130.93 425.2 130.93C424.19 130.93 423.36 131.33 423.36 131.82C423.36 132.31 421.91 133.38 420.13 134.21C418.35 135.03 416.9 136.11 416.9 136.59C416.9 137.08 416.07 137.48 415.05 137.48C414.04 137.48 413.21 137.97 413.21 138.57C413.21 139.17 412.38 139.67 411.36 139.67C410.35 139.67 409.52 140.16 409.52 140.76C409.52 141.36 408.69 141.85 407.67 141.85C406.66 141.85 405.83 142.34 405.83 142.94C405.83 143.54 405 144.03 403.98 144.03C402.97 144.03 402.13 144.53 402.13 145.13C402.13 145.73 401.3 146.22 400.29 146.22C399.27 146.22 398.44 146.71 398.44 147.31C398.44 147.91 397.61 148.4 396.6 148.4C395.58 148.4 394.75 148.89 394.75 149.5C394.75 150.1 393.92 150.59 392.91 150.59C391.89 150.59 391.06 151.08 391.06 151.68C391.06 152.28 390.23 152.77 389.22 152.77C388.2 152.77 387.37 153.26 387.37 153.86C387.37 154.46 386.54 154.96 385.52 154.96C384.51 154.96 383.68 155.45 383.68 156.05C383.68 156.65 382.93 157.14 382.01 157.14C381.09 157.14 379.54 157.86 378.55 158.74C377.56 159.62 376.03 160.36 375.14 160.38C374.25 160.4 373.53 160.91 373.53 161.51C373.53 162.11 372.7 162.6 371.68 162.6C370.67 162.6 369.84 163.09 369.84 163.69C369.84 164.29 369.01 164.78 367.99 164.78C366.98 164.78 366.15 165.28 366.15 165.88C366.15 166.48 365.32 166.97 364.3 166.97C363.29 166.97 362.45 167.46 362.45 168.06C362.45 168.66 361.62 169.15 360.61 169.15C359.59 169.15 358.76 169.64 358.76 170.24C358.76 170.85 357.93 171.34 356.92 171.34C355.9 171.34 355.07 171.83 355.07 172.43C355.07 173.03 354.24 173.52 353.23 173.52C352.21 173.52 351.38 174.01 351.38 174.61C351.38 175.21 350.55 175.7 349.54 175.7C348.52 175.7 347.69 176.1 347.69 176.59C347.69 177.08 346.24 178.16 344.46 178.98C342.68 179.81 341.23 180.88 341.23 181.37C341.23 181.86 340.4 182.26 339.38 182.26C338.37 182.26 337.54 182.75 337.54 183.35C337.54 183.95 336.71 184.44 335.69 184.44C334.68 184.44 333.85 184.93 333.85 185.53C333.85 186.13 333.02 186.63 332 186.63C330.99 186.63 330.16 187.12 330.16 187.72C330.16 188.32 329.33 188.81 328.31 188.81C327.3 188.81 326.47 189.3 326.47 189.9C326.47 190.5 325.64 190.99 324.62 190.99C323.61 190.99 322.77 191.49 322.77 192.09C322.77 192.69 321.94 193.18 320.93 193.18C319.91 193.18 319.08 193.67 319.08 194.27C319.08 194.87 318.25 195.36 317.24 195.36C316.22 195.36 315.39 195.85 315.39 196.45C315.39 197.05 314.56 197.55 313.55 197.55C312.53 197.55 311.7 198.04 311.7 198.64C311.7 199.24 310.87 199.73 309.86 199.73C308.84 199.73 308.01 200.22 308.01 200.82C308.01 201.42 307.26 201.91 306.34 201.91C305.42 201.91 303.87 202.64 302.88 203.52C301.89 204.4 300.36 205.14 299.47 205.16C298.59 205.17 297.86 205.68 297.86 206.28C297.86 206.88 297.03 207.37 296.01 207.37C295 207.37 294.17 207.87 294.17 208.47C294.17 209.07 293.34 209.56 292.32 209.56C291.31 209.56 290.48 210.05 290.48 210.65C290.48 211.25 289.65 211.74 288.63 211.74C287.62 211.74 286.79 212.23 286.79 212.84C286.79 213.44 285.96 213.93 284.94 213.93C283.93 213.93 283.09 214.42 283.09 215.02C283.09 215.62 282.26 216.11 281.25 216.11C280.23 216.11 279.4 216.6 279.4 217.2C279.4 217.8 278.57 218.3 277.56 218.3C276.54 218.3 275.71 218.79 275.71 219.39C275.71 219.99 274.88 220.48 273.87 220.48C272.85 220.48 272.02 220.97 272.02 221.57C272.02 222.17 271.19 222.66 270.18 222.66C269.16 222.66 268.33 223.06 268.33 223.55C268.33 224.04 266.88 225.12 265.1 225.94C263.32 226.76 261.87 227.84 261.87 228.33C261.87 228.82 261.04 229.22 260.02 229.22C259.01 229.22 258.18 229.71 258.18 230.31C258.18 230.91 257.35 231.4 256.33 231.4C255.32 231.4 254.49 231.89 254.49 232.49C254.49 233.09 253.66 233.58 252.64 233.58C251.63 233.58 250.8 234.08 250.8 234.68C250.8 235.28 249.97 235.77 248.95 235.77C247.94 235.77 247.11 236.26 247.11 236.86C247.11 237.46 246.28 237.95 245.26 237.95C244.25 237.95 243.41 238.44 243.41 239.04C243.41 239.65 242.58 240.14 241.57 240.14C240.55 240.14 239.72 240.63 239.72 241.23C239.72 241.83 238.89 242.32 237.88 242.32C236.86 242.32 236.03 242.81 236.03 243.41C236.03 244.01 235.2 244.51 234.19 244.51C233.17 244.51 232.34 245 232.34 245.6C232.34 246.2 231.61 246.71 230.73 246.72C229.84 246.74 228.31 247.48 227.32 248.36C226.33 249.24 224.78 249.97 223.86 249.97C222.94 249.97 222.19 250.46 222.19 251.06C222.19 251.66 221.36 252.15 220.34 252.15C219.33 252.15 218.5 252.64 218.5 253.24C218.5 253.84 217.67 254.33 216.65 254.33C215.64 254.33 214.81 254.83 214.81 255.43C214.81 256.03 213.98 256.52 212.96 256.52C211.95 256.52 211.12 257.01 211.12 257.61C211.12 258.21 210.29 258.7 209.27 258.7C208.26 258.7 207.43 259.19 207.43 259.79C207.43 260.39 206.6 260.89 205.58 260.89C204.57 260.89 203.73 261.38 203.73 261.98C203.73 262.58 202.9 263.07 201.89 263.07C200.87 263.07 200.04 263.56 200.04 264.16C200.04 264.76 199.21 265.25 198.2 265.25C197.18 265.25 196.35 265.75 196.35 266.35C196.35 266.95 195.52 267.44 194.51 267.44C193.49 267.44 192.66 267.84 192.66 268.33C192.66 268.81 191.21 269.89 189.43 270.71C187.65 271.54 186.2 272.62 186.2 273.1C186.2 273.59 185.37 273.99 184.36 273.99C183.34 273.99 182.51 274.48 182.51 275.08C182.51 275.68 181.68 276.18 180.66 276.18C179.65 276.18 178.82 276.67 178.82 277.27C178.82 277.87 177.99 278.36 176.97 278.36C175.96 278.36 175.13 278.85 175.13 279.45C175.13 280.05 174.3 280.54 173.28 280.54C172.27 280.54 171.44 281.03 171.44 281.64C171.44 282.24 170.61 282.73 169.59 282.73C168.58 282.73 167.75 283.22 167.75 283.82C167.75 284.42 166.92 284.91 165.9 284.91C164.89 284.91 164.05 285.4 164.05 286C164.05 286.6 163.22 287.1 162.21 287.1C161.19 287.1 160.36 287.59 160.36 288.19C160.36 288.79 159.53 289.28 158.52 289.28C157.5 289.28 156.67 289.77 156.67 290.37C156.67 290.97 155.84 291.46 154.83 291.46C153.81 291.46 152.98 291.96 152.98 292.56C152.98 293.16 152.23 293.65 151.31 293.65C150.39 293.65 148.84 294.37 147.85 295.25C146.87 296.13 145.33 296.87 144.45 296.89C143.56 296.91 142.83 297.42 142.83 298.02C142.83 298.62 142 299.11 140.98 299.11C139.97 299.11 139.14 299.6 139.14 300.2C139.14 300.8 138.31 301.29 137.29 301.29C136.28 301.29 135.45 301.78 135.45 302.38C135.45 302.99 134.62 303.48 133.6 303.48C132.59 303.48 131.76 303.97 131.76 304.57C131.76 305.17 130.93 305.66 129.91 305.66C128.9 305.66 128.07 306.15 128.07 306.75C128.07 307.35 127.24 307.85 126.22 307.85C125.2 307.85 124.37 308.34 124.37 308.94C124.37 309.54 123.54 310.03 122.53 310.03C121.51 310.03 120.68 310.52 120.68 311.12C120.68 311.72 119.85 312.21 118.84 312.21C117.82 312.21 116.99 312.61 116.99 313.1C116.99 313.59 115.54 314.67 113.76 315.49C111.99 316.31 110.53 317.39 110.53 317.88C110.53 318.37 109.7 318.77 108.69 318.77C107.67 318.77 106.84 319.26 106.84 319.86C106.84 320.46 106.01 320.95 105 320.95C103.98 320.95 103.15 321.44 103.15 322.04C103.15 322.64 102.32 323.13 101.3 323.13C100.29 323.13 99.46 323.63 99.46 324.23C99.46 324.83 98.63 325.32 97.61 325.32C96.6 325.32 95.77 325.81 95.77 326.41C95.77 327.01 94.94 327.5 93.92 327.5C92.91 327.5 92.08 327.99 92.08 328.59C92.08 329.2 91.25 329.69 90.23 329.69C89.22 329.69 88.39 330.18 88.39 330.78C88.39 331.38 87.56 331.87 86.54 331.87C85.52 331.87 84.69 332.36 84.69 332.96C84.69 333.56 83.86 334.05 82.85 334.05C81.83 334.05 81 334.55 81 335.15C81 335.75 80.17 336.24 79.16 336.24C78.14 336.24 77.31 336.73 77.31 337.33C77.31 337.93 76.56 338.42 75.64 338.42C74.73 338.42 73.17 339.14 72.18 340.03C71.2 340.91 69.66 341.64 68.78 341.66C67.89 341.68 67.16 342.19 67.16 342.79C67.16 343.39 66.33 343.88 65.32 343.88C64.3 343.88 63.47 344.37 63.47 344.98C63.47 345.58 62.64 346.07 61.62 346.07C60.61 346.07 59.78 346.56 59.78 347.16C59.78 347.76 58.95 348.25 57.93 348.25C56.92 348.25 56.09 348.74 56.09 349.34C56.09 349.94 55.44 350.44 54.64 350.44C52.46 350.44 50.55 353.2 50.55 356.36C50.55 358.33 51.04 359.17 52.19 359.17C53.1 359.17 54.43 360.16 55.17 361.36C55.9 362.56 57.14 363.54 57.93 363.54C58.72 363.54 59.97 364.52 60.7 365.72C61.43 366.93 62.68 367.91 63.47 367.91C64.26 367.91 65.51 368.89 66.24 370.09C66.97 371.29 68.27 372.28 69.13 372.28C69.99 372.28 70.84 372.66 71.01 373.13C71.51 374.52 83.76 384.29 85 384.29C85.62 384.29 86.73 385.27 87.46 386.47C88.19 387.68 89.44 388.66 90.23 388.66C91.02 388.66 92.27 389.64 93 390.84C93.73 392.04 94.98 393.03 95.77 393.03C96.56 393.03 97.81 394.01 98.54 395.21C99.27 396.41 100.51 397.39 101.3 397.39C102.1 397.39 103.34 398.38 104.07 399.58C104.8 400.78 106.05 401.76 106.84 401.76C107.63 401.76 108.88 402.75 109.61 403.95C110.34 405.15 111.47 406.13 112.12 406.13C112.77 406.13 113.3 406.54 113.3 407.04C113.3 407.54 114.44 408.64 115.84 409.5C117.23 410.35 119.18 411.91 120.16 412.96C121.15 414.01 122.31 414.87 122.74 414.87C123.17 414.87 124.42 415.85 125.51 417.05C126.6 418.25 128.04 419.24 128.7 419.24C129.37 419.24 129.91 419.67 129.91 420.19C129.91 420.72 131.16 421.77 132.68 422.51C134.2 423.26 135.45 424.23 135.45 424.66C135.45 425.1 137.11 426.34 139.14 427.43C141.17 428.51 142.83 429.81 142.83 430.32C142.83 430.83 143.57 431.25 144.47 431.25C145.37 431.25 146.71 432.23 147.44 433.43C149.47 436.76 150.7 436.22 159.31 428.15C163.7 424.05 169.98 418.25 173.28 415.26C179.02 410.07 184.05 405.49 197.27 393.45C200.57 390.44 207.01 384.59 211.58 380.45C221.54 371.42 225.33 367.97 250.02 345.44C260.51 335.88 273.74 323.87 279.44 318.77C285.13 313.66 290.25 308.98 290.83 308.37C291.4 307.76 294.98 304.48 298.78 301.07C302.59 297.66 309.02 291.8 313.09 288.05C324.06 277.92 332.23 270.46 343.54 260.25C349.12 255.2 358.26 246.9 363.84 241.79C369.42 236.69 379.39 227.6 385.99 221.61C392.58 215.61 404.21 205.03 411.82 198.09C419.44 191.15 430.23 181.36 435.82 176.32C445.75 167.36 484.28 132.18 487.05 129.54C487.82 128.8 491.77 125.22 495.82 121.57C507.11 111.4 535.61 85.49 552.49 70.07C560.83 62.44 570.17 53.98 573.25 51.26C576.33 48.55 579.65 45.46 580.63 44.41C581.61 43.36 582.58 42.7 582.8 42.96C583.46 43.74 580.88 47.48 572.77 57.5C568.5 62.78 556.49 77.65 546.09 90.54C535.69 103.43 522.36 119.88 516.48 127.09C510.59 134.31 501.46 145.6 496.18 152.18C487.34 163.18 481.07 170.92 455.02 203.01C449.9 209.31 444.36 216.19 442.71 218.3C438 224.32 408.43 260.92 395.12 277.21C388.47 285.35 379.54 296.38 375.28 301.73C371.02 307.07 365.92 313.46 363.96 315.92C362 318.39 355.77 326.07 350.12 332.98C339.24 346.31 306.7 386.53 292.78 403.87C285.06 413.48 276.41 424.18 252.93 453.09C247.8 459.4 242.29 466.28 240.66 468.38C239.04 470.48 233.8 476.92 229.01 482.7C221.61 491.63 220.52 493.4 221.69 494.55C222.44 495.29 234.8 502.85 249.15 511.35C270.7 524.11 275.3 527.23 275.55 529.26C275.74 530.84 276.48 531.72 277.62 531.72C278.6 531.72 279.4 532.21 279.4 532.81C279.4 533.41 280.23 533.9 281.25 533.9C282.26 533.9 283.09 534.4 283.09 535C283.09 535.6 283.93 536.09 284.94 536.09C285.96 536.09 286.79 536.58 286.79 537.18C286.79 537.78 287.62 538.27 288.63 538.27C289.65 538.27 290.48 538.76 290.48 539.36C290.48 539.96 291.31 540.46 292.32 540.46C293.34 540.46 294.17 540.95 294.17 541.55C294.17 542.15 295 542.64 296.01 542.64C297.03 542.64 297.86 543.13 297.86 543.73C297.86 544.33 298.69 544.82 299.7 544.82C300.72 544.82 301.55 545.32 301.55 545.92C301.55 546.52 302.35 547.01 303.32 547.01C304.29 547.01 305.23 547.4 305.4 547.89C305.83 549.13 334.41 565.57 336.13 565.57C336.9 565.57 337.54 566.07 337.54 566.67C337.54 567.27 338.37 567.76 339.38 567.76C340.4 567.76 341.23 568.16 341.23 568.65C341.23 569.13 342.68 570.21 344.46 571.03C346.24 571.86 347.69 572.93 347.69 573.42C347.69 573.91 348.52 574.31 349.54 574.31C350.55 574.31 351.38 574.8 351.38 575.4C351.38 576 352.21 576.49 353.23 576.49C354.24 576.49 355.07 576.99 355.07 577.59C355.07 578.19 355.9 578.68 356.92 578.68C357.93 578.68 358.76 579.17 358.76 579.77C358.76 580.37 359.59 580.86 360.61 580.86C361.62 580.86 362.45 581.35 362.45 581.95C362.45 582.56 363.29 583.05 364.3 583.05C365.32 583.05 366.15 583.54 366.15 584.14C366.15 584.74 366.98 585.23 367.99 585.23C369.01 585.23 369.84 585.72 369.84 586.32C369.84 586.92 370.67 587.42 371.68 587.42C372.7 587.42 373.53 587.91 373.53 588.51C373.53 589.11 374.36 589.6 375.37 589.6C376.39 589.6 377.22 590.09 377.22 590.69C377.22 591.29 378.02 591.78 378.99 591.78C379.96 591.78 380.89 592.16 381.06 592.62C381.67 594.26 400.8 604.9 403.13 604.9C405.5 604.89 406.37 603.55 408.82 596.15C409.32 594.65 410.1 592.57 410.55 591.52C411 590.48 411.36 588.64 411.36 587.43C411.36 586.22 411.69 585.23 412.08 585.23C412.79 585.23 415.98 573.8 415.98 571.25C415.98 570.53 416.39 569.94 416.9 569.94C417.41 569.94 417.82 568.74 417.82 567.28C417.82 565.81 418.24 564.31 418.74 563.94C419.25 563.56 419.67 562.06 419.67 560.59C419.67 559.13 420.08 557.93 420.59 557.93C421.1 557.93 421.51 556.95 421.51 555.75C421.51 554.54 421.93 553.56 422.44 553.56C422.94 553.56 423.36 552.09 423.36 550.28C423.36 548.48 423.77 547.01 424.28 547.01C424.79 547.01 425.2 546.06 425.2 544.89C425.2 543.72 425.62 542.47 426.13 542.09C426.63 541.72 427.05 540.22 427.05 538.75C427.05 537.29 427.47 536.09 427.97 536.09C428.48 536.09 428.9 534.89 428.9 533.42C428.9 531.96 429.31 530.45 429.82 530.08C430.33 529.71 430.74 528.45 430.74 527.29C430.74 526.12 431.16 525.17 431.66 525.17C432.17 525.17 432.59 523.97 432.59 522.5C432.59 521.04 433 519.53 433.51 519.16C434.02 518.79 434.43 517.53 434.43 516.37C434.43 515.2 434.85 514.25 435.36 514.25C435.86 514.25 436.28 513.02 436.28 511.52C436.28 510.01 436.69 508.79 437.2 508.79C437.71 508.79 438.12 507.59 438.12 506.12C438.12 504.66 438.54 503.15 439.05 502.78C439.55 502.41 439.97 501.15 439.97 499.98C439.97 498.82 440.38 497.87 440.89 497.87C441.4 497.87 441.81 496.39 441.81 494.59C441.81 492.79 442.23 491.31 442.74 491.31C443.24 491.31 443.66 490.36 443.66 489.19C443.66 488.03 444.08 486.77 444.58 486.4C445.09 486.03 445.51 484.52 445.51 483.06C445.51 481.59 445.92 480.39 446.43 480.39C446.94 480.39 447.35 479.63 447.35 478.7C447.35 477.77 448.18 474.98 449.2 472.49C450.21 470 451.04 467.42 451.04 466.74C451.04 466.07 451.84 463.57 452.81 461.19C453.78 458.82 454.86 455.03 455.22 452.78C455.57 450.54 456.23 448.43 456.68 448.1C457.13 447.77 457.5 446.3 457.5 444.83C457.5 443.37 457.92 442.17 458.42 442.17C458.93 442.17 459.35 440.7 459.35 438.89C459.35 437.09 459.76 435.62 460.27 435.62C460.78 435.62 461.19 434.63 461.19 433.43C461.19 432.23 461.61 431.25 462.12 431.25C462.62 431.25 463.04 430.02 463.04 428.52C463.04 427.02 463.45 425.79 463.96 425.79C464.47 425.79 464.88 424.56 464.88 423.06C464.88 421.56 465.3 420.33 465.81 420.33C466.31 420.33 466.73 419.1 466.73 417.6C466.73 416.1 467.15 414.87 467.65 414.87C468.16 414.87 468.58 413.67 468.58 412.2C468.58 410.74 468.99 409.23 469.5 408.86C470.01 408.49 470.42 407.23 470.42 406.07C470.42 404.9 470.84 403.95 471.34 403.95C471.85 403.95 472.27 402.47 472.27 400.67C472.27 398.87 472.68 397.39 473.19 397.39C473.7 397.39 474.11 396.41 474.11 395.21C474.11 394.01 474.53 393.03 475.04 393.03C475.54 393.03 475.96 391.55 475.96 389.75C475.96 387.95 476.37 386.47 476.88 386.47C477.39 386.47 477.8 385.73 477.8 384.82C477.8 383.91 478.22 382.19 478.73 381C479.23 379.81 480.06 377.85 480.57 376.66C481.08 375.47 481.49 373.5 481.49 372.29C481.49 371.08 481.91 370.09 482.42 370.09C482.92 370.09 483.34 369.14 483.34 367.97C483.34 366.81 483.76 365.55 484.26 365.18C484.77 364.81 485.19 363.3 485.19 361.84C485.19 360.37 485.52 359.17 485.94 359.17C486.36 359.17 487.27 356.69 487.97 353.64C488.67 350.6 489.58 347.87 489.98 347.57C490.39 347.27 490.72 345.83 490.72 344.36C490.72 342.9 491.11 341.7 491.59 341.7C492.07 341.7 492.73 339.49 493.08 336.79C493.42 334.08 494.07 331.87 494.52 331.87C494.97 331.87 495.34 330.64 495.34 329.14C495.34 327.64 495.75 326.41 496.26 326.41C496.77 326.41 497.18 325.18 497.18 323.68C497.18 322.18 497.6 320.95 498.1 320.95C498.61 320.95 499.03 319.48 499.03 317.67C499.03 315.87 499.44 314.4 499.95 314.4C500.46 314.4 500.87 313.41 500.87 312.21C500.87 311.01 501.29 310.03 501.8 310.03C502.3 310.03 502.72 308.56 502.72 306.75C502.72 304.95 503.13 303.48 503.64 303.48C504.15 303.48 504.56 302.49 504.56 301.29C504.56 300.09 504.98 299.11 505.49 299.11C505.99 299.11 506.41 297.63 506.41 295.83C506.41 294.03 506.83 292.56 507.33 292.56C507.84 292.56 508.26 291.33 508.26 289.83C508.26 288.32 508.67 287.1 509.18 287.1C509.69 287.1 510.1 286.14 510.1 284.98C510.1 283.81 510.52 282.55 511.02 282.18C511.53 281.81 511.95 280.31 511.95 278.84C511.95 277.37 512.36 276.18 512.87 276.18C513.38 276.18 513.79 275.22 513.79 274.06C513.79 272.89 514.21 271.63 514.72 271.26C515.22 270.89 515.64 269.39 515.64 267.92C515.64 266.45 516.05 265.25 516.56 265.25C517.07 265.25 517.48 264.06 517.48 262.59C517.48 261.12 517.9 259.62 518.41 259.25C518.91 258.88 519.33 257.62 519.33 256.45C519.33 255.29 519.74 254.33 520.25 254.33C520.76 254.33 521.17 252.86 521.17 251.06C521.17 249.26 521.59 247.78 522.1 247.78C522.61 247.78 523.02 247.04 523.02 246.13C523.02 245.22 523.39 243.62 523.83 242.58C524.58 240.84 525.74 237.67 527.71 231.95C529.22 227.58 531.33 219.27 531.33 217.71C531.33 216.83 531.74 216.11 532.25 216.11C532.76 216.11 533.17 214.64 533.17 212.84C533.17 211.03 533.59 209.56 534.09 209.56C534.6 209.56 535.02 208.58 535.02 207.37C535.02 206.17 535.43 205.19 535.94 205.19C536.45 205.19 536.86 203.99 536.86 202.53C536.86 201.06 537.28 199.56 537.78 199.18C538.29 198.81 538.71 197.31 538.71 195.84C538.71 194.38 539.12 193.18 539.63 193.18C540.14 193.18 540.55 192.19 540.55 190.99C540.55 189.79 540.97 188.81 541.48 188.81C541.98 188.81 542.4 187.34 542.4 185.53C542.4 183.73 542.81 182.26 543.32 182.26C543.83 182.26 544.24 181.3 544.24 180.14C544.24 178.97 544.66 177.71 545.17 177.34C545.67 176.97 546.09 175.47 546.09 174C546.09 172.53 546.51 171.34 547.01 171.34C547.52 171.34 547.94 170.14 547.94 168.67C547.94 167.21 548.35 165.7 548.86 165.33C549.37 164.96 549.78 163.7 549.78 162.53C549.78 161.37 550.2 160.42 550.7 160.42C551.21 160.42 551.63 159.22 551.63 157.75C551.63 156.28 552.04 154.78 552.55 154.41C553.06 154.04 553.47 152.78 553.47 151.61C553.47 150.45 553.89 149.5 554.4 149.5C554.9 149.5 555.32 148.27 555.32 146.76C555.32 145.26 555.73 144.03 556.24 144.03C556.75 144.03 557.16 142.84 557.16 141.37C557.16 139.9 557.58 138.4 558.09 138.03C558.59 137.66 559.01 136.4 559.01 135.23C559.01 134.07 559.42 133.11 559.93 133.11C560.44 133.11 560.85 131.64 560.85 129.84C560.85 128.04 561.27 126.56 561.78 126.56C562.29 126.56 562.7 125.61 562.7 124.44C562.7 123.28 563.12 122.02 563.62 121.65C564.13 121.28 564.55 119.81 564.55 118.4C564.55 116.98 564.86 115.66 565.24 115.46C566.09 115.01 569.05 105.8 570.35 99.53C570.88 96.98 571.66 94.89 572.08 94.89C572.5 94.89 572.85 93.42 572.85 91.62C572.85 89.81 573.27 88.34 573.77 88.34C574.28 88.34 574.7 87.39 574.7 86.22C574.7 85.05 575.11 83.8 575.62 83.42C576.13 83.05 576.54 81.55 576.54 80.08C576.54 78.62 576.96 77.42 577.46 77.42C577.97 77.42 578.39 75.94 578.39 74.14C578.39 72.34 578.8 70.87 579.31 70.87C579.82 70.87 580.23 69.88 580.23 68.68C580.23 67.48 580.65 66.5 581.16 66.5C581.66 66.5 582.08 65.27 582.08 63.77C582.08 62.27 582.49 61.04 583 61.04C583.51 61.04 583.92 59.81 583.92 58.31C583.92 56.81 584.34 55.58 584.85 55.58C585.35 55.58 585.77 54.35 585.77 52.85C585.77 51.35 586.19 50.12 586.69 50.12C587.2 50.12 587.62 48.92 587.62 47.45C587.62 45.99 588.03 44.48 588.53 44.12C590.25 42.86 589.36 35.28 587.47 35.11C586.54 35.03 585.77 35.43 585.77 35.99" id="apsyaKAKp"></path><path d="M220.27 541.82C220.24 566.6 220.08 587.63 219.92 588.56C219.77 589.49 220.18 591.13 220.84 592.21C221.94 593.98 223.27 592.71 235.43 578.32C242.78 569.61 248.56 562.2 248.26 561.85C247.96 561.49 248.17 561.21 248.72 561.21C250.5 561.21 275.72 530.83 275.2 529.32C274.77 528.08 222.62 496.77 220.97 496.77C220.63 496.77 220.31 517.04 220.27 541.82" id="b8dGWwRYS"></path><path d="M579.73 45.36C578.23 46.9 577.12 48.64 577.26 49.22C577.4 49.8 577.1 49.98 576.61 49.62C575.74 48.98 572.81 51.49 548.35 73.85C535.04 86.02 505.98 112.42 495.82 121.57C491.77 125.22 487.82 128.8 487.05 129.54C484.28 132.18 445.75 167.36 435.82 176.32C430.23 181.36 419.44 191.15 411.82 198.09C404.21 205.03 392.58 215.61 385.99 221.61C379.39 227.6 369.42 236.69 363.84 241.79C358.26 246.9 349.12 255.2 343.54 260.25C332.23 270.46 324.06 277.92 313.09 288.05C309.02 291.8 302.59 297.66 298.78 301.07C294.98 304.48 291.4 307.76 290.83 308.37C290.25 308.98 285.13 313.66 279.44 318.77C273.74 323.87 260.71 335.69 250.48 345.02C233.1 360.88 223.19 369.9 209.73 382.12C204.18 387.16 197.75 393 185.74 403.95C182.19 407.18 176.58 412.28 173.28 415.27C154.94 431.89 152.06 434.89 152.06 437.43C152.06 438.84 152.47 439.99 152.98 439.99C153.49 439.99 153.9 438.8 153.9 437.36C153.9 434.7 155.51 432.84 165.44 424.01C167.98 421.75 171.97 418.16 174.3 416.02C176.64 413.89 182.87 408.24 188.14 403.48C193.42 398.71 197.94 394.51 198.2 394.14C198.45 393.77 200.11 392.29 201.89 390.84C203.67 389.4 205.33 387.95 205.58 387.62C205.83 387.29 208.53 384.81 211.58 382.11C214.62 379.41 217.32 376.92 217.58 376.58C217.83 376.24 222.4 372.09 227.73 367.36C235.95 360.06 241.25 355.21 248.95 347.9C249.71 347.17 251.79 345.37 253.57 343.88C255.34 342.4 257.42 340.59 258.18 339.85C261.37 336.79 271.03 327.85 273.89 325.32C275.58 323.82 280.18 319.64 284.1 316.04C288.02 312.43 294.22 306.78 297.88 303.48C301.54 300.17 305 296.98 305.58 296.38C306.15 295.78 310.16 292.12 314.47 288.26C332.31 272.28 345.41 260.39 345.84 259.79C346.1 259.43 347.76 257.95 349.54 256.48C352.75 253.83 355.25 251.53 357.25 249.38C357.83 248.76 359.76 247.07 361.53 245.61C363.31 244.16 364.97 242.67 365.22 242.3C365.48 241.93 370.04 237.75 375.37 233C380.7 228.26 385.27 224.11 385.52 223.79C385.78 223.47 387.65 221.7 389.68 219.86C391.71 218.02 396.27 213.88 399.83 210.66C403.38 207.43 406.49 204.49 406.75 204.12C407 203.75 408.66 202.27 410.44 200.82C412.22 199.38 413.88 197.9 414.13 197.55C414.38 197.19 416.05 195.71 417.82 194.25C419.6 192.8 421.52 191.1 422.09 190.48C422.67 189.86 426.97 185.92 431.66 181.71C436.35 177.51 442.56 171.86 445.46 169.15C448.37 166.45 452.12 163.01 453.79 161.51C461.37 154.69 491.33 127.49 492.59 126.27C493.36 125.53 496.48 122.71 499.51 120.01C502.54 117.31 505.23 114.85 505.49 114.55C506.1 113.83 511.26 109.11 522.93 98.61C528.2 93.86 534.67 88.01 537.29 85.61C539.91 83.21 543.69 79.77 545.69 77.97C547.69 76.17 549.53 74.45 549.78 74.14C550.03 73.84 552.73 71.38 555.78 68.68C558.82 65.98 561.52 63.53 561.78 63.22C562.76 62.06 573.39 52.63 574.7 51.77C577.11 50.18 574.34 53.72 543.2 92.16C522.31 117.95 513.19 129.24 509.67 133.66C507.75 136.06 501.98 143.2 496.84 149.51C491.7 155.83 479.19 171.3 469.04 183.89C458.89 196.48 446.16 212.2 440.76 218.82C435.36 225.44 429.6 232.57 427.97 234.68C426.34 236.78 421 243.42 416.11 249.45C408.39 258.95 392.14 279.04 360.15 318.68C355.58 324.33 349.35 331.98 346.31 335.67C343.26 339.36 334.54 350.18 326.93 359.71C319.31 369.24 310.59 380.04 307.55 383.71C304.5 387.38 295.37 398.69 287.25 408.85C279.13 419.01 269.99 430.32 266.95 433.98C263.9 437.65 255.18 448.43 247.57 457.94C239.95 467.46 230.51 479.17 226.57 483.98C218.67 493.65 218.53 493.96 221.5 495.8C223.5 497.05 223.52 497.02 221.98 494.97C220.48 492.96 220.48 492.75 221.98 491.18C222.86 490.27 231.46 479.73 241.11 467.77C250.75 455.8 263.27 440.35 268.93 433.44C274.58 426.53 280.55 419.15 282.18 417.05C283.81 414.95 288.73 408.8 293.12 403.38C297.5 397.96 309.81 382.74 320.47 369.55C331.13 356.36 344.47 339.91 350.12 332.98C355.77 326.07 362 318.39 363.96 315.92C365.92 313.46 371.02 307.07 375.28 301.73C379.54 296.38 388.47 285.35 395.12 277.21C408.43 260.92 438 224.32 442.71 218.3C444.36 216.19 449.9 209.31 455.02 203.01C481.07 170.92 487.34 163.18 496.18 152.18C501.46 145.6 510.59 134.31 516.48 127.09C522.36 119.88 535.69 103.43 546.09 90.54C556.49 77.65 568.5 62.78 572.77 57.5C582.97 44.89 586.95 37.95 579.73 45.36M153.44 441.08C152.63 442.63 153.74 444.35 155.57 444.37C156.92 444.38 156.95 444.54 155.75 445.48C154.53 446.45 154.54 446.74 155.83 447.93C156.64 448.66 157.12 449.88 156.91 450.63C156.69 451.38 157.15 452.29 157.92 452.63C158.69 452.98 159.1 453.96 158.82 454.81C158.55 455.66 158.99 456.65 159.8 457.02C160.61 457.39 161.01 458.2 160.68 458.83C160.35 459.46 160.87 460.66 161.84 461.49C162.8 462.33 163.54 463.36 163.47 463.78C163.23 465.36 164.96 469.47 165.88 469.47C167.32 469.47 167.16 468.94 162.29 457.62C159.8 451.83 157.21 445.49 156.53 443.53C155.26 439.86 154.42 439.2 153.44 441.08M165.9 472.2C165.9 473.1 166.27 473.84 166.71 473.84C167.16 473.84 167.75 474.82 168.01 476.02C168.57 478.56 170.51 478.99 170.51 476.57C170.51 475.67 170.15 474.93 169.7 474.93C169.25 474.93 168.67 473.95 168.4 472.75C167.84 470.21 165.9 469.79 165.9 472.2M169.59 480.85C169.59 481.8 170.01 482.58 170.51 482.58C171.02 482.58 171.44 483.33 171.44 484.25C171.44 485.17 172.03 486.19 172.76 486.52C173.49 486.85 173.86 487.82 173.59 488.66C173.31 489.51 173.71 490.48 174.47 490.83C175.3 491.2 175.66 492.3 175.38 493.57C175.12 494.73 175.38 495.68 175.94 495.68C176.51 495.68 176.97 496.43 176.97 497.35C176.97 498.27 177.59 499.31 178.35 499.65C179.11 500 179.54 500.65 179.3 501.1C178.63 502.39 183.5 513.24 184.44 512.55C184.9 512.21 184.25 509.75 182.99 507.09C181.73 504.42 180.96 502.23 181.29 502.23C181.61 502.23 181.12 501.25 180.2 500.05C179.29 498.85 178.78 497.87 179.08 497.87C179.38 497.87 177.87 493.84 175.72 488.93C171.95 480.33 169.59 477.21 169.59 480.85M240.72 507.02C241.66 508.04 254.49 515.31 254.49 514.82C254.49 514.21 241.98 506.6 240.98 506.6C240.63 506.6 240.51 506.79 240.72 507.02M184.95 513.91C183.91 515.14 184.31 516.43 185.74 516.43C186.5 516.43 187.12 515.97 187.12 515.4C187.12 514.03 185.68 513.04 184.95 513.91M186.2 519.16C186.2 520.16 186.65 520.8 187.19 520.59C187.74 520.38 188.19 519.73 188.19 519.16C188.19 518.59 187.74 517.95 187.19 517.73C186.65 517.52 186.2 518.16 186.2 519.16M188.67 521.64C187.84 523.16 189.83 529.54 191.14 529.54C191.58 529.54 191.69 530.29 191.39 531.21C191.04 532.3 191.57 533.24 192.91 533.88C194.04 534.42 194.45 534.89 193.81 534.93C192.2 535.02 192.37 537.91 194.05 538.67C194.81 539.01 195.43 540.05 195.43 540.97C195.43 541.89 195.81 542.64 196.27 542.64C196.73 542.64 196.89 543.62 196.62 544.82C196.29 546.33 196.59 547.01 197.6 547.01C198.46 547.01 198.86 547.63 198.58 548.5C198.31 549.33 198.77 550.31 199.59 550.68C200.41 551.05 200.8 551.91 200.44 552.58C200.09 553.26 200.17 554.12 200.62 554.5C201.88 555.58 203.73 559.9 203.73 561.74C203.73 562.65 204.36 563.39 205.12 563.39C207.08 563.39 206.98 562.89 203.42 555.2C201.26 550.52 195.84 537.26 194.38 533.08C193.69 531.13 192.82 529.54 192.43 529.54C192.05 529.54 191.74 528.55 191.74 527.35C191.74 526.15 191.35 525.17 190.88 525.17C190.41 525.17 189.89 524.06 189.72 522.71C189.52 520.97 189.21 520.66 188.67 521.64M205.93 565.78C205.56 566.5 205.74 567.27 206.34 567.51C206.94 567.75 207.43 568.88 207.43 570.03C207.43 571.18 208.01 572.13 208.72 572.13C209.57 572.13 209.85 572.89 209.54 574.31C209.27 575.53 209.51 576.49 210.09 576.49C210.65 576.49 211.12 577.25 211.12 578.17C211.12 579.09 211.71 580.11 212.44 580.44C213.18 580.78 213.53 581.78 213.23 582.7C212.93 583.61 213.09 584.68 213.57 585.07C214.05 585.46 215.16 587.6 216.04 589.83C217.96 594.73 219.31 595.98 218.72 592.3C218.48 590.81 217.89 589.6 217.41 589.6C216.94 589.6 216.76 589.19 217.02 588.7C217.27 588.2 215.79 583.9 213.72 579.14C206.47 562.47 207.1 563.55 205.93 565.78" id="a1LKxxfcu"></path><path d="M152.06 428.07L219.89 594.43L275.21 522.87L406.51 604.9L589.45 35.1L50.55 352.23L152.06 428.07Z" id="b79BdnytKS"></path></defs><g><g><g><use xlink:href="#cFAUHYMJj" opacity="1" fill="#e4e4e4" fill-opacity="1"></use><g><use xlink:href="#cFAUHYMJj" opacity="1" fill-opacity="0" stroke="#516cfc" stroke-width="11" stroke-opacity="0"></use></g></g><g><use xlink:href="#apsyaKAKp" opacity="1" fill="#fcfcfc" fill-opacity="1"></use><g><use xlink:href="#apsyaKAKp" opacity="1" fill-opacity="0" stroke="#516cfc" stroke-width="11" stroke-opacity="0"></use></g></g><g><use xlink:href="#b8dGWwRYS" opacity="1" fill="#ced5d5" fill-opacity="1"></use><g><use xlink:href="#b8dGWwRYS" opacity="1" fill-opacity="0" stroke="#516cfc" stroke-width="11" stroke-opacity="0"></use></g></g><g><use xlink:href="#a1LKxxfcu" opacity="1" fill="#e9ecec" fill-opacity="1"></use><g><use xlink:href="#a1LKxxfcu" opacity="1" fill-opacity="0" stroke="#516cfc" stroke-width="11" stroke-opacity="0"></use></g></g><g><g><use xlink:href="#b79BdnytKS" opacity="1" fill-opacity="0" stroke="#b9c0c2" stroke-width="10" stroke-opacity="1"></use></g></g></g></g></svg>